<svg width="720" height="487" viewBox="0 0 720 487" fill="none" xmlns="http://www.w3.org/2000/svg">
<g clip-path="url(#clip0_111_4733)">
<path d="M273.253 110.249C350.705 105.867 431.909 128.689 419.973 161.772C408.036 194.856 483.789 150.022 514.018 161.95C535.54 170.442 526.937 196.293 537.348 206.71C561.221 230.592 585.638 200.517 616.021 218.563C646.405 236.608 584.198 405.028 552.457 405.969L190.422 403.824L164.442 401.548C164.442 401.548 92.5754 363.237 143.984 327.895C178.745 303.999 153.734 286.647 149.953 275.706C145.613 263.146 135.485 241.208 179.614 225.109C223.744 209.011 212.35 173.981 211.264 166.728C210.179 159.473 195.804 114.63 273.253 110.249Z" fill="url(#paint0_linear_111_4733)"/>
<path d="M388.613 418.82C539.336 418.82 661.52 414.459 661.52 409.08C661.52 403.701 539.336 399.34 388.613 399.34C237.891 399.34 115.707 403.701 115.707 409.08C115.707 414.459 237.891 418.82 388.613 418.82Z" fill="url(#paint1_linear_111_4733)"/>
<path d="M144.302 344.081C144.302 344.081 159.381 316.223 198.868 289.047C226.746 269.857 240.28 220.337 240.28 220.337C240.28 220.337 184.688 226.74 162.852 262.387C141.016 298.033 144.302 344.081 144.302 344.081Z" fill="#E76D00"/>
<path d="M144.165 344.807C144.541 344.78 144.859 344.505 144.917 344.142C150.669 314.001 166.287 291.326 178.392 277.597C191.513 262.745 203.388 254.928 203.509 254.857C203.89 254.598 204.002 254.085 203.743 253.703C203.682 253.612 203.605 253.534 203.514 253.472C203.423 253.411 203.321 253.368 203.214 253.347C203.106 253.325 202.996 253.325 202.888 253.346C202.781 253.367 202.679 253.409 202.588 253.47C202.467 253.541 190.391 261.477 177.134 276.508C164.891 290.372 149.081 313.313 143.272 343.817C143.25 343.924 143.25 344.034 143.271 344.14C143.293 344.247 143.335 344.349 143.397 344.438C143.458 344.528 143.537 344.605 143.629 344.664C143.721 344.723 143.823 344.762 143.931 344.781C144.037 344.794 144.101 344.811 144.165 344.807Z" fill="#333333"/>
<path d="M151.575 342.952C151.575 342.952 155.726 332.907 177.723 333.782C199.719 334.636 212.702 345.903 249.951 321.329C249.951 321.329 219.123 299.163 187.96 306.269C156.775 313.354 155.207 325.637 151.575 342.952Z" fill="#E76D00"/>
<path d="M151.529 343.777C151.801 343.757 152.063 343.592 152.213 343.328C152.307 343.174 160.961 327.144 176.461 323.176C203.547 316.234 222.831 323.662 223.026 323.754C223.233 323.831 223.463 323.825 223.665 323.736C223.868 323.647 224.027 323.482 224.109 323.276C224.186 323.072 224.182 322.845 224.097 322.644C224.012 322.442 223.853 322.281 223.653 322.193C223.458 322.122 203.674 314.478 176.051 321.563C159.827 325.709 151.119 341.868 150.746 342.548C150.523 342.964 150.684 343.458 151.1 343.681C151.211 343.757 151.382 343.787 151.529 343.777Z" fill="#333333"/>
<path d="M141.869 341.286C141.869 341.286 143.016 330.486 123.273 320.754C103.531 311.022 86.7485 314.724 65.7566 275.369C65.7566 275.369 103.428 270.601 127.438 291.716C151.446 312.788 146.938 324.332 141.869 341.286Z" fill="#E76D00"/>
<path d="M142.036 342.158C142.455 342.128 142.81 341.766 142.801 341.346C142.808 340.566 142.848 322.223 130.594 310.842C109.699 291.442 88.6653 288.729 88.4736 288.701C88.2569 288.677 88.0393 288.738 87.8677 288.872C87.696 289.007 87.584 289.203 87.5558 289.419C87.5314 289.636 87.593 289.853 87.7275 290.025C87.8619 290.196 88.0584 290.308 88.2746 290.336C88.4874 290.363 108.989 293.03 129.479 312.057C141.214 322.95 141.163 341.147 141.156 341.337C141.153 341.446 141.173 341.555 141.213 341.657C141.253 341.759 141.312 341.852 141.389 341.931C141.465 342.01 141.556 342.073 141.657 342.116C141.757 342.16 141.866 342.183 141.975 342.184C141.974 342.163 141.995 342.161 142.036 342.158Z" fill="#333333"/>
<path d="M151.279 415.606C179.947 415.606 198.191 411.048 195.266 390.864C193.408 378.049 183.413 365.511 176.357 358.045C175.449 357.087 174.525 356.144 173.584 355.219C170.964 352.642 169.204 351.146 169.204 351.146L169.12 350.675L168.621 347.849L168.039 344.593L166.722 337.14L166.264 334.536L151.279 333.884L135.641 334.536L135.281 337.14L134.727 341.24L133.811 347.862L133.424 350.689L133.368 351.159C133.368 351.159 131.608 352.642 128.987 355.232C128.05 356.162 127.126 357.104 126.214 358.059C119.159 365.511 109.163 378.063 107.306 390.878C104.367 411.048 122.611 415.606 151.279 415.606Z" fill="#333333"/>
<path d="M129.814 339.26H173.162C175.483 339.26 177.384 337.361 177.384 335.041V332.403C177.384 330.083 175.483 328.184 173.162 328.184H129.814C127.493 328.184 125.592 330.083 125.592 332.403V335.041C125.592 337.361 127.493 339.26 129.814 339.26Z" fill="#333333"/>
<path d="M123.017 235.519C123.017 240.004 119.197 243.636 114.479 243.636C109.76 243.636 105.96 239.986 105.96 235.519C105.96 231.033 109.78 227.402 114.498 227.402C119.216 227.402 123.017 231.033 123.017 235.519Z" stroke="#E1E4E5" stroke-width="5.225" stroke-miterlimit="10"/>
<path d="M175.264 185.972C162.941 196.733 141.743 192.652 141.743 192.652C141.743 192.652 140.539 171.125 152.871 160.372C165.195 149.612 186.382 153.685 186.382 153.685C186.382 153.685 187.587 175.211 175.264 185.972Z" fill="url(#paint2_linear_111_4733)"/>
<path d="M222.252 121.156C221.619 123.517 223.021 125.944 225.384 126.576C227.747 127.209 230.175 125.808 230.809 123.447C231.442 121.086 230.039 118.659 227.677 118.026C225.314 117.393 222.885 118.795 222.252 121.156Z" fill="#E1E4E5"/>
<path d="M238.339 177.177C237.706 179.538 239.108 181.965 241.471 182.598C243.834 183.23 246.262 181.829 246.895 179.468C247.528 177.107 246.126 174.68 243.763 174.047C241.401 173.414 238.972 174.816 238.339 177.177Z" fill="#E1E4E5"/>
<path d="M326.385 135.722C325.752 138.083 327.154 140.51 329.517 141.143C331.879 141.775 334.308 140.374 334.941 138.013C335.574 135.652 334.172 133.225 331.809 132.592C329.447 131.959 327.018 133.361 326.385 135.722Z" fill="#E1E4E5"/>
<path d="M485.998 233.239C485.582 234.791 486.503 236.385 488.056 236.801C489.608 237.217 491.204 236.296 491.62 234.745C492.036 233.193 491.115 231.599 489.562 231.183C488.01 230.767 486.414 231.688 485.998 233.239Z" fill="#E1E4E5"/>
<path d="M487.227 303.781C486.594 306.142 487.996 308.569 490.359 309.201C492.721 309.834 495.15 308.433 495.783 306.072C496.416 303.71 495.014 301.284 492.651 300.651C490.288 300.018 487.86 301.419 487.227 303.781Z" fill="#E1E4E5"/>
<path d="M522.152 277.807C521.519 280.168 522.921 282.595 525.284 283.228C527.647 283.861 530.075 282.459 530.709 280.098C531.342 277.737 529.939 275.31 527.577 274.678C525.214 274.045 522.785 275.446 522.152 277.807Z" fill="#E1E4E5"/>
<path d="M460.09 183.95V199.728L445.837 216.703H505.707C523.803 216.703 538.482 202.034 538.482 183.95C538.482 165.866 523.803 151.197 505.707 151.197H492.865C474.758 151.197 460.09 165.866 460.09 183.95Z" fill="#E1E4E5"/>
<path d="M485.347 183.894C485.346 185.439 484.732 186.919 483.639 188.011C482.547 189.103 481.065 189.717 479.52 189.717C477.975 189.717 476.493 189.103 475.4 188.011C474.308 186.919 473.694 185.439 473.693 183.894C473.694 182.35 474.308 180.87 475.4 179.778C476.493 178.686 477.975 178.072 479.52 178.072C481.065 178.072 482.547 178.686 483.639 179.778C484.732 180.87 485.346 182.35 485.347 183.894ZM505.146 183.894C505.146 185.438 504.532 186.918 503.439 188.01C502.347 189.102 500.865 189.716 499.32 189.717C497.775 189.716 496.293 189.102 495.201 188.01C494.108 186.919 493.494 185.438 493.493 183.894C493.494 182.35 494.108 180.869 495.201 179.777C496.293 178.685 497.775 178.071 499.32 178.071C500.865 178.072 502.347 178.685 503.439 179.777C504.532 180.869 505.146 182.35 505.146 183.894ZM524.947 183.894C524.946 185.438 524.332 186.919 523.239 188.01C522.147 189.102 520.665 189.716 519.12 189.717C517.574 189.716 516.093 189.102 515 188.01C513.907 186.919 513.293 185.438 513.293 183.894C513.294 182.35 513.908 180.869 515 179.777C516.093 178.685 517.574 178.072 519.12 178.071C520.665 178.071 522.147 178.685 523.239 179.777C524.332 180.869 524.946 182.35 524.947 183.894Z" fill="white"/>
<path d="M509.358 357.837L497.929 362.302L498.654 350.061L510.079 345.6L509.358 357.837Z" stroke="#E1E4E5" stroke-width="4.267" stroke-linecap="round" stroke-linejoin="round"/>
<path fill-rule="evenodd" clip-rule="evenodd" d="M257.846 135.124V104.039C257.846 100.82 260.45 98.2117 263.665 98.2117H298.585C301.801 98.2117 304.405 100.82 304.405 104.039V135.124C304.406 136.163 304.128 137.183 303.602 138.078C303.075 138.974 302.319 139.713 301.411 140.218L283.951 149.93C283.087 150.412 282.114 150.664 281.124 150.664C280.135 150.664 279.162 150.412 278.297 149.93L260.837 140.218C259.93 139.711 259.175 138.972 258.649 138.077C258.123 137.181 257.846 136.162 257.846 135.124Z" fill="#E1E4E5"/>
<path d="M271.448 123.916H290.804M271.448 114.853H290.804M271.448 132.716H290.804" stroke="white" stroke-width="3.682" stroke-linecap="round" stroke-linejoin="round"/>
<path d="M536.641 227.175L521.852 241.954C521.313 242.492 521.313 243.365 521.852 243.903C522.39 244.441 523.263 244.441 523.802 243.903L538.591 229.124C539.13 228.586 539.13 227.713 538.591 227.175C538.052 226.637 537.179 226.637 536.641 227.175Z" fill="#E1E4E5"/>
<path d="M535.193 237.756L530.928 242.018C530.39 242.556 530.39 243.429 530.928 243.967C531.467 244.505 532.34 244.505 532.879 243.967L537.144 239.705C537.682 239.167 537.682 238.294 537.144 237.756C536.605 237.218 535.732 237.218 535.193 237.756Z" fill="#E1E4E5"/>
<path d="M606.981 182.687C606.981 182.687 594.505 179.341 590.204 207.921C585.904 236.501 585.873 252.156 585.873 252.156C585.873 252.156 584.294 258.371 579.656 256.194C575.018 254.018 567.036 246.14 561.622 249.838C556.011 253.677 556.281 261.273 560.855 271.047C565.428 280.821 574.659 302.584 575.487 304.562C576.304 306.493 576.135 309.807 572.738 308.827C569.342 307.847 547.553 295.463 542.295 306.141C537.027 316.824 554.248 341.952 556.075 344.731C557.902 347.511 557.747 349.019 556.55 350.259C555.353 351.499 548.417 346.645 542.08 343.371C535.743 340.096 527.813 337.423 525.292 343.84C522.772 350.256 528.381 371.547 559.523 398.777L574.779 410.45L592.722 403.346C630.191 385.807 641.487 366.899 640.842 360.038C640.196 353.177 631.839 353.551 624.838 354.94C617.835 356.331 609.828 359.072 609.021 357.547C608.214 356.024 608.475 354.537 611.002 352.369C613.53 350.201 637.04 330.831 634.94 319.103C632.843 307.385 608.473 313.252 604.938 313.242C601.407 313.243 602.172 310.019 603.488 308.385C604.832 306.721 619.745 288.361 626.843 280.234C633.945 272.119 636.309 264.887 631.98 259.645C627.813 254.584 617.95 259.959 612.893 260.767C607.836 261.573 608.043 255.156 608.043 255.156C608.043 255.156 612.364 240.104 616.148 211.451C619.932 182.799 606.702 182.625 606.702 182.625" fill="#E1E4E5"/>
<path d="M574.46 406.435C577.314 385.401 581.509 356.377 586.261 324.333C591.004 292.304 595.266 263.3 598.249 242.281C599.727 231.793 600.918 223.297 601.749 217.395C602.16 214.476 602.483 212.203 602.707 210.627C602.817 209.876 602.909 209.292 602.969 208.866C603.038 208.475 603.081 208.265 603.081 208.265C603.081 208.265 603.072 208.465 603.034 208.874C602.985 209.297 602.919 209.886 602.835 210.642C602.638 212.223 602.353 214.499 601.994 217.429C601.26 223.318 600.136 231.833 598.701 242.347C595.847 263.38 591.65 292.392 586.909 324.433C582.168 356.474 577.896 385.482 574.925 406.497" fill="white"/>
<path d="M572.349 261.32C572.392 261.297 572.693 261.676 573.235 262.4C573.776 263.113 574.519 264.17 575.418 265.482C577.219 268.119 579.615 271.815 582.182 275.962C584.681 280.04 586.952 283.733 588.699 286.583C589.484 287.84 590.143 288.905 590.691 289.79C591.167 290.545 591.407 290.978 591.364 291.002C591.32 291.026 591.009 290.65 590.469 289.937C589.941 289.22 589.198 288.164 588.307 286.837C586.526 284.182 584.181 280.448 581.629 276.309L575.04 265.745C574.256 264.489 573.585 263.426 573.037 262.541C572.558 261.774 572.318 261.341 572.349 261.32ZM593.14 290.763C593.038 290.616 600.453 285.337 609.708 278.993C618.961 272.638 626.555 267.61 626.656 267.757C626.758 267.904 619.34 273.17 610.088 279.526C600.823 285.884 593.241 290.909 593.14 290.763ZM583.637 339.639C583.624 339.592 584.099 339.415 584.951 339.113C585.944 338.785 587.167 338.382 588.604 337.898C591.688 336.874 595.953 335.433 600.594 333.681C605.239 331.94 609.392 330.219 612.398 328.955C613.795 328.369 614.979 327.866 615.95 327.456C616.79 327.107 617.268 326.943 617.289 326.974C617.313 327.017 616.868 327.261 616.062 327.688C614.915 328.275 613.756 328.838 612.585 329.377C608.73 331.161 604.81 332.799 600.832 334.289C596.853 335.782 592.822 337.131 588.746 338.333C587.177 338.79 585.901 339.131 585.027 339.353C584.143 339.578 583.649 339.685 583.637 339.639ZM558.973 317.136C559.001 317.104 559.373 317.377 560.038 317.907C560.691 318.441 561.621 319.223 562.766 320.197C565.74 322.748 568.691 325.326 571.617 327.93C574.55 330.531 577.46 333.157 580.346 335.809C581.224 336.613 582.089 337.429 582.943 338.258C583.547 338.842 583.865 339.191 583.836 339.224C583.807 339.256 583.436 338.984 582.771 338.453C582.118 337.92 581.187 337.137 580.044 336.163C577.069 333.612 574.119 331.035 571.192 328.43C567.764 325.383 564.677 322.593 562.474 320.548C561.597 319.744 560.732 318.928 559.878 318.099C559.262 317.518 558.933 317.172 558.973 317.136ZM545.097 359.216C545.126 359.184 545.607 359.54 546.448 360.222C547.377 360.992 548.558 361.968 549.956 363.148C552.901 365.64 556.94 369.107 561.373 372.978C565.806 376.85 569.799 380.379 572.666 382.954C574.015 384.183 575.151 385.221 576.042 386.039C576.824 386.775 577.251 387.206 577.223 387.24C577.194 387.272 576.713 386.916 575.871 386.234C574.943 385.464 573.761 384.487 572.363 383.309C568.534 380.06 564.728 376.783 560.947 373.478C557.16 370.177 553.396 366.852 549.653 363.502C548.304 362.273 547.168 361.235 546.277 360.417C545.483 359.684 545.068 359.249 545.097 359.216ZM576.637 386.352C576.625 386.305 577.218 386.059 578.289 385.649C579.488 385.203 581.025 384.63 582.87 383.95C586.736 382.504 592.081 380.501 597.91 378.121C602.892 376.09 607.839 373.978 612.752 371.786C614.243 371.131 615.733 370.471 617.22 369.806C618.279 369.348 618.872 369.102 618.896 369.146C618.92 369.189 618.357 369.502 617.332 370.036C616.306 370.572 614.803 371.323 612.939 372.208C608.077 374.524 603.148 376.697 598.158 378.725C593.169 380.757 588.122 382.643 583.023 384.381C581.478 384.908 579.926 385.41 578.365 385.889C577.273 386.219 576.658 386.383 576.637 386.352Z" fill="white"/>
<path d="M568.872 207.787H568.979C569.607 216.323 576.237 216.454 576.237 216.454C576.237 216.454 568.927 216.592 568.927 226.455C568.927 216.592 561.617 216.454 561.617 216.454C561.617 216.454 568.243 216.323 568.872 207.787Z" fill="#E1E4E5"/>
<path d="M361.566 207.37L349.279 252.254L353.663 247.213C352.041 248.075 350.162 248.737 348.08 249.206C345.999 249.676 343.736 249.944 341.367 250.069C338.998 250.193 336.533 250.174 334.001 250.069C331.478 249.963 328.899 249.772 326.28 249.551H326.27C324.415 249.394 322.573 249.979 321.149 251.177C319.725 252.376 318.835 254.09 318.675 255.944C318.359 259.625 320.976 262.883 324.564 263.468C327.269 263.899 330.012 264.301 332.831 264.628C335.651 264.953 338.537 265.193 341.53 265.26C344.523 265.327 347.62 265.212 350.824 264.752C354.018 264.292 357.335 263.458 360.578 262.059C361.564 261.634 362.449 261.007 363.176 260.218C363.903 259.428 364.456 258.495 364.797 257.478L364.951 257.008L379.692 212.862C381.351 207.898 378.666 202.54 373.698 200.882C368.73 199.224 363.369 201.908 361.709 206.872C361.661 207.035 361.604 207.217 361.566 207.37Z" fill="#F8AE9D"/>
<path d="M425.263 262.015C425.263 262.015 425.737 268.663 420.974 270.419L371.411 272.326C371.411 272.326 368.081 269.097 368.737 261.354C368.737 261.336 389.799 239.862 425.263 262.015Z" fill="#E76D00"/>
<path d="M388.871 269.027C389.034 270.291 389.59 271.26 390.118 271.183C390.636 271.116 390.933 270.033 390.77 268.778C390.606 267.512 390.05 266.544 389.523 266.621C388.995 266.688 388.707 267.771 388.871 269.027Z" fill="#B55E63"/>
<path d="M367.799 253.257V253.324C367.819 253.509 367.829 253.704 367.838 253.909C367.887 254.688 367.926 255.623 367.955 256.685C367.985 257.542 367.994 258.477 368.004 259.48C368.004 260.23 368.014 261.009 368.014 261.818C382.107 255.73 410.928 260.055 422.529 262.168C422.413 261.584 422.306 261.009 422.199 260.444C422.121 260.025 422.053 259.616 421.975 259.207C421.206 254.756 420.797 250.754 420.661 247.179L420.632 246.225C420.515 240.916 421.089 233.369 422.257 225.596C422.335 225.06 422.423 224.525 422.5 223.999L422.676 222.947C423.1 220.366 423.597 217.797 424.165 215.243C424.359 214.386 424.525 213.519 424.661 212.662C424.817 211.708 424.934 210.753 425.021 209.808C425.236 207.412 425.216 205.075 424.904 202.903C424.35 199.036 422.841 195.706 420.048 193.563C418.471 192.355 416.476 191.518 414.003 191.186C413.195 191.079 412.398 190.972 411.629 190.884C409.205 190.592 406.976 190.388 405.166 190.242C404.572 190.193 404.017 190.154 403.521 190.115C402.255 190.027 401.321 189.969 400.863 189.949C400.753 189.945 400.643 189.938 400.533 189.93L378.895 195.92L376.832 196.485C375.956 196.758 375.129 197.021 374.36 197.274C372.452 197.907 370.827 198.511 369.425 199.104C367.692 199.844 366.311 200.565 365.221 201.325C360.451 204.627 361.132 208.435 361.151 215.935V216.451C361.151 217.016 361.142 217.58 361.123 218.145C361.103 218.856 361.064 219.557 361.006 220.259C360.908 221.671 361.748 223.049 361.572 224.432C363.841 234.166 364.408 237.412 365.221 243.5C365.924 248.776 365.785 251.776 367.264 252.867C367.596 253.121 367.799 253.257 367.799 253.257Z" fill="#E76D00"/>
<path d="M400.063 190.991C400.063 190.991 398.154 198.207 390.943 200.211C381.774 202.75 380.392 199.674 380.392 199.674C380.62 198.368 380.704 197.04 380.641 195.716C380.619 195.187 380.577 194.66 380.517 194.134C380.354 192.658 380.047 191.049 379.615 189.208C379.52 188.777 379.404 188.326 379.29 187.866L379.28 187.808C385.552 185.451 390.472 181.914 393.484 176.681L394.376 175.982L394.98 175.503L395.152 175.866L395.182 177.084C395.306 182.805 396.275 186.189 400.063 190.991Z" fill="#F8AE9D"/>
<path d="M356.837 370.103C357.02 370.103 357.201 370.075 357.383 370.007L421.739 346.823C422.133 346.668 422.451 346.365 422.625 345.98C422.8 345.595 422.817 345.157 422.673 344.759C422.53 344.361 422.237 344.034 421.856 343.849C421.476 343.663 421.038 343.633 420.636 343.765L356.28 366.95C355.92 367.08 355.617 367.332 355.425 367.664C355.234 367.995 355.165 368.383 355.231 368.76C355.298 369.137 355.495 369.478 355.789 369.724C356.083 369.97 356.454 370.104 356.837 370.103Z" fill="#E76D00"/>
<path d="M423.858 370.104C424.24 370.103 424.61 369.967 424.902 369.721C425.194 369.474 425.39 369.133 425.455 368.757C425.521 368.38 425.451 367.993 425.259 367.663C425.067 367.332 424.765 367.08 424.405 366.95L359.283 343.382C358.881 343.249 358.442 343.277 358.061 343.462C357.679 343.646 357.385 343.972 357.24 344.37C357.095 344.768 357.111 345.207 357.285 345.594C357.459 345.98 357.776 346.284 358.17 346.44L423.293 370.007C423.494 370.075 423.676 370.104 423.858 370.104Z" fill="#E76D00"/>
<path d="M351.111 411.536C351.783 411.534 352.432 411.29 352.938 410.848C353.444 410.406 353.773 409.796 353.864 409.13L365.488 322.402H414.124L425.565 409.13C425.612 409.492 425.73 409.841 425.913 410.157C426.095 410.473 426.338 410.749 426.628 410.971C426.917 411.193 427.248 411.355 427.601 411.449C427.953 411.543 428.321 411.566 428.683 411.517C429.044 411.47 429.393 411.352 429.709 411.17C430.025 410.988 430.302 410.745 430.524 410.455C430.746 410.166 430.908 409.836 431.002 409.483C431.096 409.131 431.119 408.764 431.071 408.402L419.312 319.259C419.224 318.591 418.896 317.978 418.39 317.534C417.884 317.089 417.233 316.844 416.559 316.843H363.052C362.379 316.842 361.729 317.086 361.222 317.528C360.716 317.971 360.388 318.582 360.299 319.249L348.349 408.393C348.252 409.123 348.449 409.862 348.897 410.448C349.344 411.034 350.006 411.419 350.737 411.517C350.862 411.536 350.986 411.536 351.111 411.536Z" fill="#E76D00"/>
<path d="M378.551 319.622H413.298C424.309 319.622 436.097 313.604 437.785 302.725C439.915 288.988 440.648 275.071 439.971 261.186C439.261 246.571 432.279 232.98 420.78 223.923C420.78 223.923 413.836 254.152 422.563 295.882C419.246 311.744 378.551 319.622 378.551 319.622Z" fill="#E76D00"/>
<path d="M298.15 374.377H313.668C313.668 374.377 317.265 357.164 318.464 347.503C319.672 337.851 320.296 314.964 320.296 314.964C320.296 314.964 332.668 318.98 358.563 317.466C415.936 314.121 394.184 271.998 394.184 271.998C392.246 274.671 380.373 272.821 372.259 274.097C347.352 276.483 325.743 286.259 312.786 291.847C309.66 293.189 306.887 294.616 304.461 296.111C301.334 298.038 299.378 303.875 298.198 311.561C294.65 334.65 298.15 374.377 298.15 374.377Z" fill="#333333"/>
<path d="M298.582 394.247H309.535L311.645 381.404L312.796 374.378H299.186L298.975 381.404L298.582 394.247Z" fill="#F8AE9D"/>
<path d="M298.582 394.246H309.535L311.108 384.681L311.645 381.403H298.975L298.869 384.805L298.582 394.246Z" fill="url(#paint3_linear_111_4733)"/>
<path d="M271.545 411.537H312.987C313.294 410.981 313.467 410.185 313.534 409.237C313.793 405.729 312.68 400.141 312.124 396.614C312.057 396.201 312 395.818 311.952 395.473C311.875 394.879 311.827 394.39 311.827 394.036C311.827 391.16 309.276 391.649 309.276 391.649C305.084 395.761 300.337 389.598 297.566 391.62C297.566 391.62 297.45 391.706 297.201 391.898C296.97 392.08 296.615 392.368 296.126 392.78C295.417 393.374 294.429 394.227 293.086 395.435C289.797 398.396 284.205 400.342 279.439 402.336C278.834 402.585 278.268 402.843 277.741 403.092C277.348 403.285 276.973 403.476 276.619 403.668C272.725 405.767 271.488 407.78 271.209 409.237C270.931 410.645 271.545 411.537 271.545 411.537Z" fill="#333333"/>
<path d="M271.545 411.537H312.987C313.294 410.981 313.467 410.185 313.534 409.237H271.209C270.931 410.646 271.545 411.537 271.545 411.537Z" fill="#333333"/>
<path d="M402.62 202.409L388.844 253.17L393.756 247.469C391.939 248.446 389.832 249.188 387.501 249.723C385.171 250.249 382.627 250.559 379.979 250.691C377.324 250.832 374.555 250.803 371.722 250.691C368.888 250.569 365.998 250.362 363.062 250.109H363.044C358.709 249.733 354.897 252.973 354.524 257.34C354.169 261.5 357.106 265.191 361.133 265.848C364.162 266.337 367.247 266.797 370.407 267.163C373.567 267.53 376.81 267.812 380.166 267.887C383.522 267.962 386.998 267.83 390.587 267.305C394.175 266.779 397.895 265.839 401.529 264.262C403.86 263.247 405.51 261.322 406.265 259.086L406.442 258.56L422.958 208.626C424.813 203.009 421.812 196.952 416.238 195.074C410.673 193.204 404.652 196.229 402.788 201.844C402.732 202.023 402.666 202.239 402.62 202.409Z" fill="#F8AE9D"/>
<path d="M325.177 374.426H340.696C340.696 374.426 344.292 357.212 345.491 347.551C346.699 337.899 347.323 315.012 347.323 315.012C347.323 315.012 359.695 319.028 385.59 317.513C442.963 314.169 421.211 272.046 421.211 272.046C419.274 274.719 404.734 278.41 396.62 279.684C371.713 282.07 352.771 286.298 339.813 291.895C336.686 293.237 333.915 294.664 331.488 296.159C328.362 298.086 326.405 303.923 325.225 311.609C321.668 334.698 325.177 374.426 325.177 374.426Z" fill="#333333"/>
<path d="M325.599 394.303H336.562L338.672 381.46L339.823 374.425H326.214L325.993 381.46L325.599 394.303Z" fill="#F8AE9D"/>
<path d="M325.599 394.304H336.562L338.125 384.738L338.672 381.461H325.993L325.887 384.863L325.599 394.304Z" fill="url(#paint4_linear_111_4733)"/>
<path d="M298.563 411.593H340.005C340.312 411.037 340.484 410.242 340.552 409.293C340.811 405.785 339.698 400.197 339.142 396.67C339.075 396.258 339.017 395.875 338.969 395.53C338.892 394.936 338.844 394.447 338.844 394.092C338.844 391.217 336.293 391.706 336.293 391.706C332.102 395.817 327.355 389.654 324.583 391.677C324.583 391.677 324.468 391.763 324.219 391.955C323.988 392.137 323.633 392.425 323.144 392.837C322.434 393.431 321.447 394.284 320.104 395.491C316.814 398.453 311.222 400.398 306.456 402.392C305.852 402.641 305.286 402.9 304.759 403.149C304.366 403.341 303.991 403.533 303.636 403.725C299.742 405.824 298.505 407.836 298.227 409.293C297.959 410.692 298.563 411.593 298.563 411.593Z" fill="#333333"/>
<path d="M298.562 411.593H340.005C340.312 411.037 340.484 410.242 340.552 409.293H298.227C297.959 410.692 298.562 411.593 298.562 411.593Z" fill="#333333"/>
<path d="M240.36 271.502V275.803C240.36 278.283 241.883 280.284 243.775 280.284H481.14C483.024 280.284 484.556 278.283 484.556 275.803V271.502C484.556 269.034 483.033 267.021 481.14 267.021H243.775C241.893 267.033 240.36 269.034 240.36 271.502Z" fill="#E1E4E5"/>
<path d="M252.497 286.4H466.155C467.113 286.4 467.89 285.768 467.89 284.982V277.515H250.771V284.982C250.771 285.768 251.548 286.4 252.497 286.4ZM477.702 412.677L447.433 287.285H458.069L488.328 412.677H477.702ZM270.365 412.677L300.634 287.285H290.007L259.739 412.677H270.365Z" fill="#E1E4E5"/>
<path d="M269.08 201.342L280.206 248.363L280.503 249.599L281.251 252.762C281.408 253.427 281.785 254.02 282.321 254.445C282.857 254.869 283.521 255.1 284.205 255.1H359.158C361.115 255.1 362.573 253.27 362.122 251.363L349.951 199.943C349.794 199.277 349.417 198.684 348.881 198.26C348.345 197.835 347.681 197.604 346.997 197.604H272.044C270.078 197.613 268.629 199.444 269.08 201.342Z" fill="#E76D00"/>
<path d="M305.497 228.37C305.852 231.61 308.767 234.226 312.009 234.226C315.251 234.226 317.581 231.6 317.226 228.37C316.871 225.13 313.956 222.514 310.715 222.514C307.472 222.514 305.142 225.13 305.497 228.37Z" fill="white"/>
<path d="M344.015 197.613L356.972 255.109H359.159C361.116 255.109 362.564 253.279 362.113 251.372L349.942 199.952C349.785 199.286 349.408 198.693 348.872 198.269C348.336 197.844 347.672 197.613 346.988 197.613H344.015ZM322.357 254.643L324.413 266.137H317.621L315.565 254.643H322.357Z" fill="#333333"/>
<path d="M333.855 265.1L332.32 262.943C332.048 262.564 331.69 262.255 331.274 262.042C330.859 261.828 330.399 261.717 329.932 261.717H309.34C308.806 261.716 308.281 261.862 307.825 262.139C307.368 262.416 306.996 262.814 306.751 263.288L305.715 265.273C305.226 266.202 305.907 267.305 306.953 267.305H332.714C333.845 267.305 334.507 266.021 333.855 265.1Z" fill="#333333"/>
<path d="M376.028 189.53C376.028 189.53 396.783 187.51 395.325 174.611C393.867 161.713 395.561 152.765 382.249 153.511C368.936 154.256 366.918 159.467 366.359 163.89C365.8 168.314 370.593 189.722 376.028 189.53Z" fill="#F8AE9D"/>
<path d="M358.561 152.549C358.561 152.549 360.701 164.519 364.779 164.956C368.857 165.392 367.396 160.359 367.396 160.359L366.296 154.681L358.561 152.549Z" fill="#002C54"/>
<path d="M393.837 148.708C393.291 144.174 388.523 142.9 388.523 142.9C383.739 141.193 374.3 143.022 364.679 146.134C362.413 146.864 359.395 145.73 357.895 146.997C356.081 148.528 358.593 154.506 358.593 154.506C363.469 165.621 377.062 160.574 381.127 158.76C382.406 161.618 382.665 165.733 385.344 167.627C386.878 168.702 389.335 168.505 391.808 167.849C392.165 168.402 393.377 168.815 393.686 169.595C394.73 172.206 395.01 176.412 395.292 179.646L396.424 178.953C396.492 178.055 405.992 147.948 393.837 148.708Z" fill="#333333"/>
<path d="M205.078 150.97H179.872C170.901 150.97 163.628 158.238 163.628 167.203V178.33C163.628 187.295 170.901 194.563 179.872 194.563H205.078C214.049 194.563 221.322 187.295 221.322 178.33V167.203C221.322 158.238 214.049 150.97 205.078 150.97Z" fill="#E76D00"/>
<path d="M196.844 188.382L196.261 187.799C194.041 185.58 190.441 185.58 188.22 187.799L187.637 188.382C185.417 190.601 185.417 194.198 187.637 196.417L188.22 196.999C190.441 199.218 194.041 199.218 196.261 196.999L196.844 196.417C199.064 194.198 199.064 190.601 196.844 188.382Z" fill="#E76D00"/>
<path fill-rule="evenodd" clip-rule="evenodd" d="M198.35 160.345C203.397 160.345 206.781 165.059 206.781 169.449C206.781 178.36 192.731 185.657 192.475 185.657C192.219 185.657 178.169 178.36 178.169 169.449C178.169 165.059 181.553 160.345 186.6 160.345C189.485 160.345 191.38 161.776 192.475 163.052C193.57 161.776 195.465 160.345 198.35 160.345Z" fill="white"/>
</g>
<defs>
<linearGradient id="paint0_linear_111_4733" x1="385.439" y1="572.068" x2="380.012" y2="-212.637" gradientUnits="userSpaceOnUse">
<stop stop-color="white"/>
<stop offset="1" stop-color="#EEEEEE"/>
</linearGradient>
<linearGradient id="paint1_linear_111_4733" x1="400.251" y1="429.742" x2="400.23" y2="378.142" gradientUnits="userSpaceOnUse">
<stop stop-color="white"/>
<stop offset="1" stop-color="#EEEEEE"/>
</linearGradient>
<linearGradient id="paint2_linear_111_4733" x1="126.607" y1="222.227" x2="219.078" y2="98.9521" gradientUnits="userSpaceOnUse">
<stop stop-color="white"/>
<stop offset="1" stop-color="#EEEEEE"/>
</linearGradient>
<linearGradient id="paint3_linear_111_4733" x1="304.835" y1="401.447" x2="305.224" y2="367.432" gradientUnits="userSpaceOnUse">
<stop stop-color="white"/>
<stop offset="1" stop-color="#EEEEEE"/>
</linearGradient>
<linearGradient id="paint4_linear_111_4733" x1="331.857" y1="401.504" x2="332.246" y2="367.489" gradientUnits="userSpaceOnUse">
<stop stop-color="white"/>
<stop offset="1" stop-color="#EEEEEE"/>
</linearGradient>
<clipPath id="clip0_111_4733">
<rect width="720" height="487" fill="white"/>
</clipPath>
</defs>
</svg>
